<?xml version="1.0" encoding="UTF-8"?><svg id="Layer_1" xmlns="http://www.w3.org/2000/svg" width="801" height="801" viewBox="0 0 801 801"><path d="M400.78,44.63c196.16,0,355.74,159.57,355.74,355.76s-159.58,355.76-355.74,355.76S45.01,596.55,45.01,400.39,204.62,44.63,400.78,44.63m0-44.24C180.21,.39,.77,179.83,.77,400.39s179.45,400,400.02,400,399.98-179.44,399.98-400S621.33,.39,400.78,.39h0Z"/><g><path d="M578.66,298.87h-210.94c-3.72,0-6.9,2.68-7.53,6.35l-9.85,57.81c-.8,4.66,2.8,8.92,7.53,8.92h135.26c4.73,0,8.32,4.26,7.53,8.92l-5.27,30.94-17.89,104.96c-3.75,21.98-24.68,39.86-46.67,39.86h-107.04c-3.72,0-6.9,2.68-7.53,6.35l-9.85,57.81c-.8,4.66,2.8,8.92,7.53,8.92h104.44c62.28,0,121.59-50.67,132.21-112.95l17.89-104.96,17.73-104.03c.8-4.66-2.8-8.92-7.53-8.92Z"/><path d="M323.03,428.82c-21.98,0-36.82-17.88-33.07-39.86l17.89-104.96c3.75-21.98,24.68-39.86,46.67-39.86h107.04c3.72,0,6.9-2.68,7.53-6.35l9.85-57.81c.8-4.66-2.8-8.92-7.53-8.92h-104.44c-62.28,0-121.59,50.67-132.21,112.95l-17.89,104.96c-10.62,62.28,31.42,112.95,93.7,112.95h107.04c3.72,0,6.9-2.68,7.53-6.35l9.85-57.81c.8-4.66-2.8-8.92-7.53-8.92h-104.44Z"/></g><g><path d="M711.07,718.67v5.64h-11.94v33.05h-6.36v-33.05h-11.94v-5.64h30.23Z"/><path d="M724.12,718.67l12.38,30.45,12.16-30.45h8.07v38.68h-6.13v-28.46l-11.61,28.46h-5.36l-11.6-28.46v28.46h-6.13v-38.68h8.23Z"/></g></svg>