<?xml version="1.0" standalone="no"?>
<!DOCTYPE svg PUBLIC "-//W3C//DTD SVG 20010904//EN"
 "http://www.w3.org/TR/2001/REC-SVG-20010904/DTD/svg10.dtd">
<svg version="1.0" xmlns="http://www.w3.org/2000/svg"
 width="900.000000pt" height="900.000000pt" viewBox="0 0 900.000000 900.000000"
 preserveAspectRatio="xMidYMid meet">

<g transform="translate(0.000000,900.000000) scale(0.100000,-0.100000)"
fill="#000000" stroke="none">
<path d="M3397 5419 c-399 -58 -673 -303 -768 -684 -26 -105 -36 -292 -20
-390 52 -321 266 -567 581 -671 80 -27 96 -28 260 -29 152 0 187 3 265 24 360
93 593 342 669 715 24 115 22 309 -4 411 -83 325 -352 572 -680 624 -75 13
-219 12 -303 0z m-43 -208 c131 -90 284 -363 400 -713 68 -205 98 -345 99
-468 1 -108 -13 -160 -50 -190 -100 -78 -271 84 -423 403 -169 354 -264 748
-219 911 6 22 24 53 40 69 26 25 35 29 69 24 21 -3 59 -19 84 -36z"/>
<path d="M837 5383 c-4 -3 -7 -385 -7 -849 0 -758 2 -842 16 -848 25 -9 577
-7 593 3 15 10 14 18 -18 156 -31 137 -51 313 -53 482 -4 205 -12 197 193 201
106 3 154 0 165 -8 10 -9 14 -37 14 -109 0 -185 36 -405 96 -593 19 -59 42
-114 50 -123 13 -13 59 -15 312 -15 163 0 303 4 311 9 11 7 4 29 -34 111 -59
130 -117 305 -147 440 -19 90 -22 135 -23 320 0 189 3 228 23 324 27 124 84
295 135 405 19 41 33 81 30 88 -7 19 -596 19 -611 1 -15 -20 -68 -192 -90
-298 -11 -52 -28 -156 -38 -230 -9 -74 -22 -141 -27 -148 -8 -10 -46 -13 -164
-10 -200 4 -198 2 -195 154 2 127 22 258 62 413 16 62 27 117 24 122 -6 10
-607 12 -617 2z"/>
<path d="M4465 5381 c-3 -5 19 -56 49 -113 68 -129 120 -270 154 -413 24 -99
26 -130 27 -315 0 -179 -3 -218 -23 -308 -30 -135 -81 -280 -144 -414 -43 -91
-49 -110 -38 -123 12 -14 53 -16 355 -13 l342 3 34 26 c22 17 48 55 72 103 74
152 223 526 291 734 44 133 54 120 105 -143 35 -177 55 -334 72 -540 10 -129
14 -152 31 -167 18 -16 46 -18 264 -18 191 0 252 3 279 14 31 13 42 30 104
158 206 425 329 809 407 1266 13 81 26 174 27 207 l2 60 -207 3 c-182 2 -208
0 -223 -14 -12 -12 -15 -26 -10 -48 45 -218 59 -358 59 -591 1 -256 -10 -350
-59 -515 -35 -116 -52 -152 -72 -148 -13 2 -23 43 -54 228 -55 333 -127 626
-241 980 l-34 105 -252 3 -252 2 0 -52 c-1 -111 -20 -360 -35 -455 -31 -194
-111 -462 -213 -713 -30 -75 -43 -96 -60 -98 -27 -4 -28 11 -7 141 47 296 35
637 -31 902 -21 86 -75 248 -87 263 -12 15 -622 18 -632 3z"/>
<path d="M7236 5381 c-4 -5 -15 -78 -27 -163 -70 -531 -163 -924 -320 -1366
-42 -116 -49 -145 -39 -157 11 -13 99 -15 714 -13 l701 3 3 403 2 402 -25 0
c-17 0 -28 -8 -35 -22 -104 -256 -145 -330 -229 -421 -67 -71 -158 -129 -249
-157 -86 -27 -252 -54 -262 -44 -5 5 27 115 70 244 83 244 141 461 184 686 32
166 74 459 78 544 l3 65 -282 3 c-167 1 -284 -1 -287 -7z"/>
</g>
</svg>
