
<svg version="1.0" xmlns="http://www.w3.org/2000/svg"
 width="500.000000pt" height="500.000000pt" viewBox="0 0 500.000000 500.000000"
 preserveAspectRatio="xMidYMid meet">

<g transform="translate(0.000000,500.000000) scale(0.100000,-0.100000)"
fill="#000000" stroke="none">
<path d="M1452 2848 l3 -1523 285 0 285 0 3 473 2 472 205 0 205 0 356 -475
356 -475 354 0 c240 0 354 3 354 10 0 6 -190 263 -421 570 l-421 560 99 94
c112 107 186 207 243 329 287 618 -89 1344 -763 1472 -64 12 -178 15 -613 15
l-534 0 2 -1522z m1028 942 c182 -29 348 -182 389 -361 57 -245 -98 -500 -344
-565 -35 -10 -119 -14 -272 -14 l-223 0 0 475 0 475 193 0 c105 0 221 -5 257
-10z"/>
<path d="M960 986 c72 -69 486 -406 499 -406 9 0 403 54 876 120 473 66 1137
159 1475 205 338 47 620 87 625 90 6 2 -777 4 -1740 4 -1501 1 -1747 -1 -1735
-13z"/>
</g>
</svg>
