<?xml version="1.0" standalone="no"?>
<!DOCTYPE svg PUBLIC "-//W3C//DTD SVG 20010904//EN"
 "http://www.w3.org/TR/2001/REC-SVG-20010904/DTD/svg10.dtd">
<svg version="1.0" xmlns="http://www.w3.org/2000/svg"
 width="1200.000000pt" height="216.000000pt" viewBox="0 0 1200.000000 216.000000"
 preserveAspectRatio="xMidYMid meet">

<g transform="translate(0.000000,216.000000) scale(0.100000,-0.100000)"
fill="#000000" stroke="none">
<path d="M755 2136 c-85 -28 -178 -74 -267 -132 -73 -49 -168 -131 -168 -145
0 -6 56 -99 125 -208 68 -108 127 -205 131 -215 6 -17 2 -18 -62 -12 -38 3
-157 8 -265 12 l-196 6 -24 -98 c-34 -139 -34 -374 0 -512 l23 -94 152 6 c83
4 189 9 235 12 69 5 83 4 79 -8 -3 -7 -58 -96 -122 -197 -64 -100 -116 -189
-116 -196 0 -7 32 -43 71 -79 117 -108 254 -191 399 -239 140 -47 119 -62 241
171 58 111 108 204 111 207 3 3 54 -89 114 -205 l109 -210 30 6 c59 13 181 57
250 92 102 51 180 106 262 185 l72 69 -36 57 c-20 31 -73 115 -118 186 -45 72
-94 150 -109 174 l-28 44 164 -7 c89 -3 209 -9 264 -12 l102 -6 17 97 c27 148
11 458 -25 498 -4 5 -135 3 -290 -3 -154 -7 -283 -10 -285 -8 -2 2 65 114 150
248 l154 245 -47 43 c-66 60 -198 147 -274 181 -69 32 -197 75 -203 70 -2 -2
-62 -116 -135 -254 -73 -137 -133 -251 -134 -253 -2 -1 -63 112 -137 253 -74
140 -136 255 -139 255 -3 -1 -36 -11 -75 -24z m-160 -836 c187 -6 374 -16 415
-21 97 -12 199 -61 262 -126 26 -27 146 -206 272 -407 l226 -359 -22 -25 c-62
-66 -344 -219 -366 -198 -2 3 -64 119 -137 257 -72 138 -136 250 -141 250 -5
-1 -69 -115 -142 -253 -73 -139 -134 -254 -136 -255 -5 -6 -85 26 -158 62 -64
32 -210 133 -223 155 -3 5 65 120 151 255 85 136 154 249 152 251 -2 2 -98 -1
-214 -6 -115 -5 -246 -10 -290 -10 -96 0 -90 -10 -100 161 -6 94 7 257 23 282
3 4 23 6 46 3 23 -3 195 -10 382 -16z"/>
<path d="M9270 1899 c-32 -13 -88 -66 -106 -101 -21 -40 -18 -141 6 -188 63
-123 234 -147 335 -46 93 93 78 241 -33 317 -28 19 -50 24 -106 26 -39 2 -82
-2 -96 -8z"/>
<path d="M5890 1879 c-90 -15 -209 -80 -271 -147 -78 -84 -128 -196 -129 -289
l0 -33 -75 0 -75 0 0 -155 0 -154 73 -3 72 -3 3 -382 2 -383 165 0 165 0 0
385 0 385 100 0 100 0 0 155 0 155 -101 0 -102 0 6 37 c11 67 78 113 167 113
35 0 35 1 110 142 41 79 76 146 78 150 10 23 -198 43 -288 27z"/>
<path d="M2810 1086 l0 -756 170 0 170 0 2 247 3 248 142 3 142 3 25 -38 c13
-21 79 -134 146 -250 l122 -213 184 0 c101 0 184 2 184 4 0 2 -70 124 -155
271 -85 147 -155 270 -155 273 0 4 20 20 45 35 60 39 140 128 174 196 134 265
-5 595 -295 703 -57 21 -75 22 -481 26 l-423 3 0 -755z m807 407 c93 -44 125
-195 61 -288 -47 -69 -50 -70 -300 -73 l-228 -3 0 190 0 191 216 0 c180 0 222
-3 251 -17z"/>
<path d="M4609 1430 c-300 -48 -499 -302 -475 -609 15 -193 111 -349 271 -442
165 -96 440 -105 620 -21 79 37 202 150 183 167 -7 7 -66 42 -131 78 l-119 67
-34 -26 c-105 -81 -301 -70 -391 21 -79 78 -93 75 342 75 l385 0 6 26 c4 14 4
76 2 137 -4 84 -11 127 -28 172 -64 167 -204 298 -364 341 -68 18 -197 25
-267 14z m235 -314 c42 -25 96 -94 96 -124 0 -9 -62 -12 -230 -12 -168 0 -230
3 -230 12 0 22 49 95 76 112 82 54 207 59 288 12z"/>
<path d="M6565 1430 c-92 -15 -150 -38 -231 -92 -193 -129 -280 -359 -229
-603 22 -105 68 -189 144 -264 114 -113 226 -159 411 -168 136 -6 232 11 328
58 64 31 182 131 182 154 0 7 -57 44 -126 83 l-126 70 -55 -34 c-64 -38 -119
-49 -209 -41 -92 9 -165 52 -200 120 l-15 27 390 0 389 0 6 23 c11 41 6 192
-9 255 -44 185 -193 343 -375 396 -69 20 -197 28 -275 16z m239 -314 c42 -25
96 -94 96 -124 0 -9 -62 -12 -230 -12 -168 0 -230 3 -230 12 0 22 49 95 76
112 82 54 207 59 288 12z"/>
<path d="M7893 1419 c-61 -24 -134 -88 -162 -144 l-21 -40 0 88 0 87 -165 0
-165 0 0 -540 0 -540 165 0 165 0 0 303 c0 339 3 352 73 414 46 40 97 57 158
51 l50 -5 82 156 c45 85 83 159 85 163 6 13 -72 28 -143 27 -45 0 -89 -7 -122
-20z"/>
<path d="M8490 1429 c-83 -14 -191 -71 -244 -129 -61 -68 -80 -129 -74 -236 4
-70 9 -90 34 -131 56 -91 125 -128 371 -203 114 -34 145 -59 123 -100 -15 -28
-50 -40 -112 -40 -71 0 -132 31 -161 81 -12 21 -25 39 -30 39 -13 0 -277 -152
-277 -159 0 -4 14 -29 31 -54 91 -138 252 -204 469 -194 124 6 212 31 288 82
99 67 135 142 135 277 0 93 -31 166 -93 222 -55 50 -97 69 -256 116 -158 47
-184 60 -184 95 0 31 35 55 82 55 52 0 86 -15 125 -56 l33 -35 135 71 c75 40
135 78 135 86 0 7 -27 41 -59 74 -117 119 -285 169 -471 139z"/>
<path d="M10134 1431 c-84 -14 -149 -40 -226 -90 -243 -158 -325 -466 -197
-731 43 -87 160 -203 250 -247 333 -163 732 3 833 346 21 70 21 237 1 314 -47
183 -209 342 -396 393 -68 18 -199 25 -265 15z m189 -325 c60 -22 103 -62 133
-122 66 -136 10 -295 -125 -351 -49 -21 -147 -20 -196 1 -81 34 -141 116 -152
205 -7 64 19 151 60 198 64 73 184 103 280 69z"/>
<path d="M11491 1429 c-70 -12 -128 -38 -174 -79 l-37 -32 0 46 0 46 -165 0
-165 0 0 -540 0 -540 165 0 165 0 1 328 c1 356 2 371 57 426 87 90 262 63 313
-47 17 -39 19 -69 19 -374 l0 -333 165 0 165 0 0 366 c0 419 -5 463 -70 563
-88 136 -259 202 -439 170z"/>
<path d="M9190 880 l0 -550 165 0 165 0 0 550 c0 303 -1 550 -2 550 -2 0 -25
-7 -52 -15 -27 -8 -77 -15 -111 -15 -34 0 -84 7 -111 15 -27 8 -50 15 -51 15
-2 0 -3 -247 -3 -550z"/>
</g>
</svg>
