<?xml version="1.0" standalone="no"?>
<!DOCTYPE svg PUBLIC "-//W3C//DTD SVG 20010904//EN"
 "http://www.w3.org/TR/2001/REC-SVG-20010904/DTD/svg10.dtd">
<svg version="1.0" xmlns="http://www.w3.org/2000/svg"
 width="700.000000pt" height="700.000000pt" viewBox="0 0 700.000000 700.000000"
 preserveAspectRatio="xMidYMid meet">
<metadata>
Created by potrace 1.14, written by Peter Selinger 2001-2017
</metadata>
<g transform="translate(0.000000,700.000000) scale(0.100000,-0.100000)"
fill="#000000" stroke="none">
<path d="M1671 6289 c-115 -22 -237 -113 -293 -216 -35 -64 -61 -167 -52 -207
3 -17 21 -48 40 -68 84 -94 142 -415 151 -850 7 -313 -3 -426 -52 -624 -55
-225 -68 -320 -62 -479 5 -160 32 -265 93 -369 50 -85 67 -166 67 -326 0 -293
-92 -604 -310 -1050 -125 -256 -127 -268 -51 -366 370 -480 876 -786 1519
-918 260 -54 274 -46 349 183 27 84 67 190 89 236 l40 82 108 67 c204 127 381
261 566 430 365 335 664 804 812 1276 l26 85 182 79 c726 317 1224 597 1443
811 100 98 127 140 172 269 31 90 35 113 36 211 1 101 -1 114 -26 160 -34 64
-80 108 -143 137 -41 19 -66 23 -145 22 -80 0 -110 -5 -195 -34 -55 -18 -116
-45 -135 -60 -180 -137 -589 -368 -827 -467 l-53 -22 -6 27 c-45 218 -157 344
-336 381 -53 11 -58 15 -69 49 -41 132 -173 262 -321 317 -43 16 -48 21 -53
54 -24 155 -51 215 -130 290 -61 58 -143 101 -240 127 -59 16 -104 19 -290 18
-234 -1 -339 -14 -632 -80 -110 -24 -449 -115 -484 -129 -13 -5 -18 7 -28 72
-75 483 -299 817 -588 878 -75 16 -107 17 -172 4z m177 -285 c155 -77 299
-381 327 -689 l6 -60 -83 -39 c-67 -31 -99 -55 -163 -120 -47 -47 -94 -106
-113 -141 -31 -60 -31 -60 -32 -25 0 19 -5 103 -10 185 -23 341 -76 609 -152
759 l-30 59 20 26 c55 75 138 91 230 45z m1902 -725 c129 -20 210 -79 214
-152 l1 -32 -105 -7 c-526 -36 -1012 -125 -1279 -233 -165 -67 -310 -168 -360
-249 -24 -38 -27 -98 -8 -136 28 -56 116 -87 170 -59 12 7 46 36 76 65 175
175 677 294 1493 353 125 10 143 9 200 -9 35 -11 84 -32 109 -48 43 -28 89
-79 89 -99 0 -4 -87 -29 -194 -55 -312 -76 -556 -162 -780 -274 -204 -103
-247 -139 -248 -211 -1 -122 112 -170 231 -99 248 150 603 276 1028 366 160
34 239 38 284 14 39 -20 77 -100 85 -182 l7 -61 -69 -31 c-186 -86 -376 -147
-507 -165 -72 -10 -118 -55 -124 -121 -5 -60 18 -103 70 -127 43 -21 52 -21
163 -2 122 22 321 90 494 170 80 37 219 97 310 135 294 121 578 271 835 443
146 98 210 126 287 127 82 0 84 -14 30 -189 -22 -73 -32 -91 -81 -141 -130
-132 -396 -297 -811 -504 -267 -133 -699 -330 -800 -366 -72 -25 -90 -41 -90
-76 0 -42 -71 -261 -127 -393 -135 -318 -316 -585 -573 -842 -160 -160 -240
-229 -395 -341 -97 -70 -281 -188 -293 -188 -14 0 -67 -55 -99 -100 -45 -66
-85 -151 -128 -270 -21 -58 -42 -109 -46 -114 -18 -21 -373 82 -557 162 -118
51 -279 143 -402 230 -100 71 -410 369 -410 395 0 7 27 68 59 134 285 577 390
1086 297 1447 -14 54 -32 106 -40 115 -31 35 -75 149 -86 226 -19 128 -5 246
59 505 16 63 32 142 35 175 14 127 14 127 39 110 32 -23 98 -19 138 8 29 19
39 38 69 127 60 179 135 260 280 300 25 7 119 35 210 62 585 175 1012 246
1250 207z"/>
</g>
</svg>
