<?xml version="1.0" standalone="no"?>
<!DOCTYPE svg PUBLIC "-//W3C//DTD SVG 20010904//EN"
 "http://www.w3.org/TR/2001/REC-SVG-20010904/DTD/svg10.dtd">
<svg version="1.0" xmlns="http://www.w3.org/2000/svg"
 width="192.000000pt" height="192.000000pt" viewBox="0 0 192.000000 192.000000"
 preserveAspectRatio="xMidYMid meet">
<metadata>
Created by potrace 1.14, written by Peter Selinger 2001-2017
</metadata>
<g transform="translate(0.000000,192.000000) scale(0.100000,-0.100000)"
fill="#000000" stroke="none">
<path d="M1262 1583 c-52 -25 -62 -56 -62 -188 l0 -115 -32 0 c-18 0 -45 -6
-59 -14 -22 -11 -30 -11 -50 0 -31 17 -77 17 -110 0 -22 -11 -30 -11 -50 0
-33 18 -74 17 -115 -2 -49 -23 -64 -59 -64 -149 0 -124 -16 -134 -100 -64 -85
72 -168 88 -231 46 -73 -49 -87 -143 -32 -216 73 -96 364 -440 398 -470 218
-190 593 -59 670 235 12 47 15 134 15 457 0 349 -2 403 -16 433 -29 60 -96 80
-162 47z m79 -73 c18 -10 19 -25 19 -384 0 -211 -4 -397 -10 -427 -22 -116
-92 -209 -196 -260 -56 -28 -76 -33 -142 -33 -98 0 -160 26 -230 97 -86 89
-382 451 -382 469 0 9 11 29 24 44 22 27 25 27 63 16 21 -6 58 -28 80 -47 51
-43 107 -68 136 -60 78 22 97 54 97 163 0 95 14 123 54 104 24 -11 25 -15 28
-113 3 -84 6 -104 21 -113 12 -8 22 -8 35 0 14 9 18 30 22 112 6 113 15 132
54 114 24 -11 25 -16 28 -113 3 -84 6 -104 21 -113 12 -8 22 -8 35 0 14 9 18
30 22 112 6 113 15 132 54 114 24 -11 25 -16 28 -113 3 -84 6 -104 21 -113 12
-8 22 -8 35 0 15 10 18 38 22 270 3 142 9 265 13 272 10 15 22 15 48 2z"/>
</g>
</svg>
