<?xml version="1.0" standalone="no"?>
<!DOCTYPE svg PUBLIC "-//W3C//DTD SVG 20010904//EN"
 "http://www.w3.org/TR/2001/REC-SVG-20010904/DTD/svg10.dtd">
<svg version="1.0" xmlns="http://www.w3.org/2000/svg"
 width="1200.000000pt" height="628.000000pt" viewBox="0 0 1200.000000 628.000000"
 preserveAspectRatio="xMidYMid meet">

<g transform="translate(0.000000,628.000000) scale(0.100000,-0.100000)"
fill="#000000" stroke="none">
<path d="M1290 4257 c-3 -3 -52 -11 -109 -17 -148 -16 -280 -53 -400 -111 -85
-41 -117 -64 -176 -123 -94 -94 -137 -181 -168 -336 -21 -108 -21 -112 -4
-211 36 -208 113 -328 282 -438 134 -88 298 -144 526 -181 261 -42 329 -70
329 -137 0 -60 -85 -93 -240 -93 l-89 0 -3 48 -3 47 -347 3 -348 2 0 -304 0
-303 38 -6 c60 -10 419 -46 517 -52 50 -3 147 -11 217 -17 134 -12 247 -5 456
29 276 44 476 172 570 365 53 109 72 199 72 341 0 197 -51 336 -165 453 -138
140 -333 213 -681 254 -200 23 -265 40 -293 77 -39 49 -22 95 47 125 34 16 75
22 159 26 l113 5 0 -72 0 -71 340 0 c187 0 343 0 348 0 4 0 8 139 10 309 l2
309 -32 6 c-187 33 -950 91 -968 73z"/>
<path d="M3505 4248 c-159 -24 -242 -41 -318 -64 -327 -103 -546 -332 -632
-659 -39 -149 -48 -240 -42 -443 6 -207 28 -325 87 -464 86 -202 237 -362 436
-461 88 -44 241 -90 349 -105 237 -34 264 -35 373 -22 397 46 592 126 778 322
181 191 264 438 264 788 0 216 -27 371 -94 529 -125 298 -393 495 -753 555
-230 39 -321 44 -448 24z m273 -697 c30 -16 69 -66 84 -108 18 -53 19 -552 0
-605 -32 -89 -95 -128 -207 -128 -112 0 -175 39 -207 128 -9 27 -13 111 -13
312 0 264 1 277 22 316 39 72 77 96 173 106 36 4 124 -8 148 -21z"/>
<path d="M8748 4210 c-96 -17 -195 -56 -266 -103 -40 -27 -79 -58 -85 -68 -21
-34 -27 -20 -27 71 l0 90 -507 -2 -508 -3 0 -310 0 -310 83 -3 82 -3 0 -429 0
-429 -82 -3 -83 -3 0 -308 0 -307 675 0 675 0 3 310 2 310 -170 0 -170 0 0
103 c0 425 122 653 385 721 86 22 214 36 327 36 l98 0 0 314 0 314 -27 6 c-46
11 -354 16 -405 6z"/>
<path d="M10610 4213 c-84 -14 -224 -72 -287 -119 l-32 -24 -3 62 -3 63 -507
3 -508 2 0 -315 0 -315 85 0 85 0 0 -430 0 -430 -85 0 -85 0 0 -310 0 -310
570 0 c314 0 573 0 578 0 4 0 8 139 10 310 l2 310 -70 0 -70 0 0 358 c0 351 0
359 23 402 32 64 74 85 167 85 88 0 132 -20 165 -75 19 -33 20 -54 23 -402 l3
-368 -71 0 -70 0 0 -310 0 -310 515 0 c283 0 518 0 523 0 4 0 8 139 10 310 l2
310 -84 0 -84 0 -5 398 c-6 506 -20 602 -110 777 -52 100 -164 216 -254 263
-92 48 -198 72 -312 71 -53 -1 -107 -4 -121 -6z"/>
<path d="M4855 4187 c-3 -7 -4 -147 -3 -312 l3 -300 80 -3 80 -3 199 -729
c110 -401 202 -734 206 -739 4 -7 216 -11 645 -11 l640 -1 137 518 c76 285
164 617 196 738 l59 220 81 3 82 3 0 314 0 315 -555 0 -555 0 0 -315 0 -314
101 -3 101 -3 -1 -195 c-2 -280 -19 -368 -99 -504 -43 -73 -123 -156 -151
-156 -12 0 -45 24 -75 55 -60 61 -136 202 -156 290 -6 28 -14 155 -17 283 l-5
232 96 0 96 0 0 315 0 315 -590 0 c-466 0 -592 -3 -595 -13z"/>
</g>
</svg>
